<svg xmlns="http://www.w3.org/2000/svg" viewBox="0 0 48 60" x="0px" y="0px"><title>Christmas 3_expand</title><path d="M39.991,16.05c0-.061.009-.121.009-.182a16,16,0,1,0-19.936,15.49V47.132a1,1,0,0,0,1,1h5.872a1,1,0,0,0,1-1V31.358A16.009,16.009,0,0,0,39.984,16.187,1.039,1.039,0,0,0,39.991,16.05ZM30.561,3.509l0,2.261a1,1,0,0,0,1,1h0a1,1,0,0,0,1-1V4.813a13.968,13.968,0,0,1,5.423,10.708l-4.567,2.238a5.052,5.052,0,0,1-4.889-.267L25.9,15.827l2.9-1.519A7.048,7.048,0,0,0,32.542,8.5a1,1,0,1,0-2-.116,5.044,5.044,0,0,1-2.679,4.153l-2.743,1.437.12-2.933a7.06,7.06,0,0,0-3.1-6.109L18.991,2.81a13.873,13.873,0,0,1,11.57.7ZM10.019,16.246l2.06-1.185a1,1,0,1,0-1-1.734l-.92.529A14.012,14.012,0,0,1,16.906,3.819l4.126,2.773a5.049,5.049,0,0,1,2.214,4.367l-.127,3.11-2.765-1.751a7.046,7.046,0,0,0-6.9-.341,1,1,0,1,0,.9,1.787,5.038,5.038,0,0,1,4.934.243L21.9,15.664l-2.6,1.363a7.054,7.054,0,0,0-3.742,5.735L15.281,26.8A13.972,13.972,0,0,1,10.019,16.246ZM25.936,46.132H22.064V31.739a14.592,14.592,0,0,0,3.872,0Zm5.575-18.47-2.146-1.244a1,1,0,0,0-1,1.731l1.072.621A13.953,13.953,0,0,1,17.2,28.094l.355-5.2a5.044,5.044,0,0,1,2.674-4.1l2.757-1.445-.133,3.271a7.045,7.045,0,0,0,3.156,6.148.987.987,0,0,0,.548.165,1,1,0,0,0,.549-1.835,5.043,5.043,0,0,1-2.255-4.4l.126-3.095,2.48,1.571a7.057,7.057,0,0,0,6.838.373l3.555-1.742A14.006,14.006,0,0,1,31.511,27.662Z"/></svg>