<svg xmlns="http://www.w3.org/2000/svg" xmlns:xlink="http://www.w3.org/1999/xlink" version="1.1" x="0px" y="0px" viewBox="0 0 512 640" enable-background="new 0 0 512 512" xml:space="preserve"><g><path d="M389.658,256c0-49.125-39.824-88.948-88.949-88.948c-49.125,0-88.948,39.824-88.948,88.948s39.824,88.948,88.948,88.948   C349.834,344.948,389.658,305.125,389.658,256z M232.424,255.181c0.003-0.297,0.009-0.594,0.016-0.892   c0.891-36.413,30.714-65.978,67.133-66.57c0.315-0.005,0.63-0.008,0.945-0.009c22.226-0.061,33.786,26.493,18.62,42.741   c-14.131,15.139-32.001,30.94-48.646,43.728C254.835,286.208,232.192,274.923,232.424,255.181z M293.167,290.796   c22.716-11.332,46.488-26.342,62.49-40.896c5.099-4.637,13.308-1.132,13.342,5.76c0.001,0.25,0.001,0.501,0,0.752   c-0.219,36.784-30.089,67.115-66.866,67.864c-0.36,0.007-0.719,0.012-1.077,0.014C282.32,324.383,276.401,299.159,293.167,290.796z   "/><path d="M417.35,442.55h-2.234c-29.509,0-54.033,21.752-58.379,50.064H155.264c-1.898-12.361-7.646-23.468-15.973-32.064h189.41   c4.971,0,9-4.029,9-9s-4.029-9-9-9H103.65V145c0-4.971-4.029-9-9-9s-9,4.029-9,9v306.55c0,4.971,4.029,9,9,9h2.234   c19.55,0,35.943,13.738,40.058,32.064H119c-4.971,0-9,4.029-9,9s4.029,9,9,9h27.948h218.104h37.701c4.971,0,9-4.029,9-9   s-4.029-9-9-9h-27.695c4.116-18.326,20.508-32.064,40.058-32.064h2.234c4.971,0,9-4.029,9-9S422.32,442.55,417.35,442.55z"/><path d="M82.5,492.614h-21c-4.971,0-9,4.029-9,9s4.029,9,9,9h21c4.971,0,9-4.029,9-9S87.471,492.614,82.5,492.614z"/><path d="M417.35,51.45h-2.234c-22.643,0-41.064-18.421-41.064-41.064c0-4.971-4.029-9-9-9H146.948c-4.971,0-9,4.029-9,9   c0,22.643-18.421,41.064-41.064,41.064H94.65c-4.971,0-9,4.029-9,9V106c0,4.971,4.029,9,9,9s9-4.029,9-9V69.064   c26.423-3.027,47.604-23.562,51.613-49.679h201.473c1.898,12.361,7.646,23.468,15.973,32.064H171c-4.971,0-9,4.029-9,9s4.029,9,9,9   h237.35V405c0,4.971,4.029,9,9,9s9-4.029,9-9V60.45C426.35,55.479,422.32,51.45,417.35,51.45z"/></g></svg>